<svg id="Слой_4" data-name="Слой 4" xmlns="http://www.w3.org/2000/svg" xmlns:xlink="http://www.w3.org/1999/xlink" viewBox="0 0 254.9 181.3"><defs><style>.cls-1{fill:url(#Безымянный_градиент_9);}.cls-2{fill:url(#Безымянный_градиент_9-2);}.cls-3{fill:url(#Безымянный_градиент_9-3);}.cls-4{fill:url(#Безымянный_градиент_9-4);}.cls-5{fill:url(#Безымянный_градиент_9-5);}.cls-6{fill:#fff;}</style><linearGradient id="Безымянный_градиент_9" x1="70.7" y1="-3.25" x2="70.7" y2="188.53" gradientUnits="userSpaceOnUse"><stop offset="0" stop-color="#d23f30"/><stop offset="1" stop-color="#4f3f84"/></linearGradient><linearGradient id="Безымянный_градиент_9-2" x1="197.56" y1="-3.25" x2="197.56" y2="188.53" xlink:href="#Безымянный_градиент_9"/><linearGradient id="Безымянный_градиент_9-3" x1="52.94" y1="-3.25" x2="52.94" y2="188.53" xlink:href="#Безымянный_градиент_9"/><linearGradient id="Безымянный_градиент_9-4" x1="182.84" y1="-3.25" x2="182.84" y2="188.53" xlink:href="#Безымянный_градиент_9"/><linearGradient id="Безымянный_градиент_9-5" x1="130.04" y1="-3.25" x2="130.04" y2="188.53" xlink:href="#Безымянный_градиент_9"/></defs><title>text4</title><path class="cls-1" d="M12.7,52.7H28.3A5,5,0,0,0,31,52a5,5,0,0,0,2.7.8H49a5,5,0,0,0,4.4-2.7,18.2,18.2,0,0,0,10.9,3.2,18,18,0,0,0,11.6-3.8,5,5,0,0,0,4.7,3.3H95.2l1.2-.2,1.2,0.2h13.9l1.2-.2,1.2,0.2h14.7a5,5,0,0,0,5-5V43.1a5,5,0,0,0-3.7-4.8V30.5c0-5.2-1.2-9.2-3.6-12.1a13.2,13.2,0,0,0-10.5-4.7,14.3,14.3,0,0,0-7.6,2l-0.5.3-0.6-.4a13.7,13.7,0,0,0-7.3-2,15.2,15.2,0,0,0-6.1,1.2,5,5,0,0,0-2.5-.7H80.1a5,5,0,0,0-4.6,3.1,18,18,0,0,0-11.3-3.6c-5.6,0-10.3,2-13.6,5.8a20.2,20.2,0,0,0-4.8,13.8v0.6c0,0.3,0,.6,0,0.9l-5.1-7.3,6.1-8.1,2.2-.4A5,5,0,0,0,53.1,14V9.4a5,5,0,0,0-5-5H32.9a5,5,0,0,0-2.3.5,5,5,0,0,0-2.3-.5H12.7a5,5,0,0,0-5,5V14a5,5,0,0,0,4,4.9h0V38.2h0a5,5,0,0,0-4,4.9v4.6A5,5,0,0,0,12.7,52.7Zm50.8-19V33.2a8.1,8.1,0,0,1,.6-3.6h0.2a7.8,7.8,0,0,1,.7,3.6v0.6a7.8,7.8,0,0,1-.6,3.6H64.1A8.1,8.1,0,0,1,63.4,33.8Z" transform="translate(-3.3 -1.6)"/><path class="cls-2" d="M142.2,34.7a5,5,0,0,0-1.4,3.6v6.4a5,5,0,0,0,1.8,3.8,20.5,20.5,0,0,0,6.5,3.6,23.3,23.3,0,0,0,7.7,1.2,19.7,19.7,0,0,0,10.9-2.9,5,5,0,0,0,4.2,2.3h14.5l1.5-.2,1.5,0.2h14.7a5,5,0,0,0,4.6-3,18.2,18.2,0,0,0,11.3,3.5,24.5,24.5,0,0,0,7.9-1.2l2.9-1.2a5,5,0,0,0,3.9,1.9h15.1a5,5,0,0,0,5-5V43.1a5,5,0,0,0-3.7-4.8V6.6a5,5,0,0,0-5-5H234.2a5,5,0,0,0-5,5v4.6a5,5,0,0,0,4.1,4.9h0.1v4.5a16.1,16.1,0,0,0-1.4-1.9c-3.1-3.4-7.4-5.1-12.7-5.1h-0.1a16.6,16.6,0,0,0-13.1,5.9,18.9,18.9,0,0,0-1.9,2.7,13.1,13.1,0,0,0-2.5-4.2,13.5,13.5,0,0,0-10.5-4.4,14.2,14.2,0,0,0-5.9,1.2,5,5,0,0,0-2.6-.7H171.4a5,5,0,0,0-3.8,1.8l-3.1-1.2a26.7,26.7,0,0,0-7.7-1.1c-4.9,0-8.8,1.3-11.7,3.8a13,13,0,0,0-4.7,9.9,11.8,11.8,0,0,0,2.1,6.9Z" transform="translate(-3.3 -1.6)"/><path class="cls-3" d="M37,112.4v0.2a17.7,17.7,0,0,0,13.5,5.5,24.5,24.5,0,0,0,7.9-1.2l2.9-1.2a5,5,0,0,0,3.9,1.9H79.8l1.5-.2,1.5,0.2H97.6a5,5,0,0,0,5-5v-4.6a5,5,0,0,0-3.7-4.8V94.7c0-5.1-1.2-9.1-3.7-11.8a13.5,13.5,0,0,0-10.5-4.4,14.2,14.2,0,0,0-5.9,1.2,5,5,0,0,0-2.6-.7H64.9a5,5,0,0,0-4.4,2.7A17.1,17.1,0,0,0,50,78.5H49.9a16.6,16.6,0,0,0-13.1,5.9l-1.2,1.6a16.1,16.1,0,0,0-1.7-2.3c-3.1-3.4-7.4-5.1-12.7-5.1H21.1A16.6,16.6,0,0,0,8,84.3,20.5,20.5,0,0,0,3.3,98v1.1a19,19,0,0,0,5,13.5,17.7,17.7,0,0,0,13.5,5.5,24.5,24.5,0,0,0,7.9-1.2,20.2,20.2,0,0,0,6.1-3.2A5,5,0,0,0,37,112.4Z" transform="translate(-3.3 -1.6)"/><path class="cls-4" d="M258.2,100.6V96.4c0-5.2-1.5-9.5-4.5-12.8s-7.4-5.1-12.7-5.1H241a16.7,16.7,0,0,0-12.4,5.1,5,5,0,0,0-1.4-3.1,5,5,0,0,0,1.3-3.4V71.4a5,5,0,0,0-5-5h-7.7a5,5,0,0,0-5,5v5.7a5,5,0,0,0,.4,1.9l-1.2.3A5,5,0,0,0,208,79H195.4V71.4a5,5,0,0,0-5-5H178.6a5,5,0,0,0-1.9.4,5,5,0,0,0-1.9-.4H167a5,5,0,0,0-4.8,3.8,5,5,0,0,0-4.8-3.8h-7.7a5,5,0,0,0-5,5v5.8A5,5,0,0,0,145,79l-1.3.3a5,5,0,0,0-1.8-.4H129.2V71.4a5,5,0,0,0-5-5H112.4a5,5,0,0,0-5,5v4.6a5,5,0,0,0,4.1,4.9h0.1v22.1a5,5,0,0,0-3.7,4.8v4.6a5,5,0,0,0,5,5h14.7l1.4-.2,1.4,0.2h13.2l1.2-.2,1.2,0.2h10.5l-0.4,5.8a5,5,0,0,0,3.8,5.2l2.5,0.5h2.6a14.7,14.7,0,0,0,11-4.2,14.1,14.1,0,0,0,3.7-7.3h14.2l1.4-.2,1.4,0.2h8.7l-0.4,5.8a5,5,0,0,0,3.8,5.2l2.5,0.5h2.6a14.7,14.7,0,0,0,11-4.2c2.7-2.8,4.1-6.6,4.1-11.2v-0.7a17.8,17.8,0,0,0,13.1,5.2,24.5,24.5,0,0,0,7.9-1.2,20.2,20.2,0,0,0,6.1-3.2,5,5,0,0,0,1.5-5.9l-1.3-3A5,5,0,0,0,258.2,100.6Zm-96-22.2,0.2,0.7H162Zm-17.5,24.7h-0.2l-0.9-.2-4.1-6.2,2-2.7,1.5-.3,0.7-.2,0.9,0.3h0.1v9.5Zm65.3-9.8,0.9,0.3h0.1v9.5h-0.3l-0.9-.2-4.1-6.2,2-2.7,1.5-.3Z" transform="translate(-3.3 -1.6)"/><path class="cls-5" d="M222.9,134h-7.7a5,5,0,0,0-5,5v10.5a12.2,12.2,0,0,0-1.3-1.8,13.5,13.5,0,0,0-10.5-4.4,14.2,14.2,0,0,0-5.9,1.2,5,5,0,0,0-2.6-.7H178.7a5,5,0,0,0-4.4,2.7,17.1,17.1,0,0,0-10.6-3.2h-0.1a16.6,16.6,0,0,0-13.1,5.9,18.9,18.9,0,0,0-2,2.9,13.9,13.9,0,0,0-2.3-4,13.2,13.2,0,0,0-10.5-4.7,14.3,14.3,0,0,0-7.6,2l-0.5.3-0.6-.4a13.7,13.7,0,0,0-7.3-2,15.2,15.2,0,0,0-6.1,1.2,5,5,0,0,0-2.5-.7H99.9a5,5,0,0,0-4.4,2.7A17.1,17.1,0,0,0,85,143.3H84.9a16.6,16.6,0,0,0-13.1,5.9,18.9,18.9,0,0,0-1.9,2.7,13.1,13.1,0,0,0-2.5-4.2,13.5,13.5,0,0,0-10.5-4.4,14.2,14.2,0,0,0-5.9,1.2,5,5,0,0,0-2.6-.7H37.2a5,5,0,0,0-5,5v4.6a5,5,0,0,0,4,4.9h0v9.5a5,5,0,0,0-3.7,4.8v4.6a5,5,0,0,0,5,5H52l1.5-.2,1.5,0.2H69.8a5,5,0,0,0,4.6-3,18.2,18.2,0,0,0,11.3,3.5,24.5,24.5,0,0,0,7.9-1.2l2.9-1.2a5,5,0,0,0,3.9,1.9H115l1.2-.2,1.2,0.2h13.9l1.2-.2,1.2,0.2h14.7a5,5,0,0,0,4.6-3,18.2,18.2,0,0,0,11.3,3.6,24.5,24.5,0,0,0,7.9-1.2l2.9-1.2a5,5,0,0,0,3.9,1.9h14.5l1.5-.2,1.5,0.2h14.7a5,5,0,0,0,2-.4,5,5,0,0,0,2,.4h7.7a5,5,0,0,0,5-5v-6.7a5,5,0,0,0-1.2-3.2,5,5,0,0,0,1.2-3.2V139A5,5,0,0,0,222.9,134Z" transform="translate(-3.3 -1.6)"/><path class="cls-6" d="M12.7,43.1l4.1-.8V14.8L12.7,14V9.4H28.3V14l-3.9.8V25h3.3l7.4-10.7L32.9,14V9.4H48.1V14l-4.2.7L34.5,27.3,45.1,42.5,49,43.1v4.6H33.8V43.1l2.4-.3L28.7,31.7H24.4V42.3l3.9,0.8v4.6H12.7V43.1Z" transform="translate(-3.3 -1.6)"/><path class="cls-6" d="M50.7,33.2a15.3,15.3,0,0,1,3.6-10.5q3.6-4.1,9.9-4.1t9.9,4.1a15.3,15.3,0,0,1,3.6,10.5v0.6a15.3,15.3,0,0,1-3.6,10.5q-3.6,4-9.8,4t-9.9-4a15.3,15.3,0,0,1-3.6-10.5V33.2Zm7.7,0.6A12.4,12.4,0,0,0,59.8,40a5.3,5.3,0,0,0,8.8,0A12.3,12.3,0,0,0,70,33.8V33.2A12.2,12.2,0,0,0,68.6,27a4.7,4.7,0,0,0-4.4-2.4A4.7,4.7,0,0,0,59.8,27a12.4,12.4,0,0,0-1.4,6.2v0.6Z" transform="translate(-3.3 -1.6)"/><path class="cls-6" d="M80.1,23.9V19.2H91.4L91.7,23a9.6,9.6,0,0,1,3.4-3.2,9.9,9.9,0,0,1,4.8-1.1,8.7,8.7,0,0,1,4.7,1.2,7.5,7.5,0,0,1,3,3.7A9.9,9.9,0,0,1,111,20a9.3,9.3,0,0,1,5-1.3,8.2,8.2,0,0,1,6.7,2.9q2.4,2.9,2.4,8.9V42.3l3.7,0.8v4.6H114V43.1l3.3-.8V30.5q0-3.2-1.1-4.5a3.9,3.9,0,0,0-3.1-1.3,5.4,5.4,0,0,0-2.8.7,5.3,5.3,0,0,0-1.9,2q0,0.5,0,.9c0,0.2,0,.5,0,0.7V42.3l3.1,0.8v4.6H97.7V43.1l3.1-.8V30.5q0-3.2-1.1-4.5a3.8,3.8,0,0,0-3.2-1.3,6,6,0,0,0-2.7.6,5.2,5.2,0,0,0-1.9,1.7V42.3l3.3,0.8v4.6H80.5V43.1l3.7-.8V24.7Z" transform="translate(-3.3 -1.6)"/><path class="cls-6" d="M167.8,29h-5.2l-0.8-3.6a6.7,6.7,0,0,0-2-1.1,8,8,0,0,0-2.6-.4,5.2,5.2,0,0,0-3.2.9,2.8,2.8,0,0,0-1.2,2.3,2.6,2.6,0,0,0,1.1,2.1,12.1,12.1,0,0,0,4.5,1.5q5.3,1.1,7.9,3.1a6.8,6.8,0,0,1,2.6,5.6,7.5,7.5,0,0,1-3.3,6.3,14.3,14.3,0,0,1-8.7,2.4,18.2,18.2,0,0,1-6.1-1,15.4,15.4,0,0,1-4.9-2.8V38.2h5.4l1.1,3.7a4.4,4.4,0,0,0,1.9.9l2.5,0.3a6.3,6.3,0,0,0,3.6-.8,2.6,2.6,0,0,0,1.2-2.3,2.7,2.7,0,0,0-1.2-2.2,12.7,12.7,0,0,0-4.6-1.6,18.3,18.3,0,0,1-7.6-3,6.6,6.6,0,0,1-2.6-5.5,8,8,0,0,1,3-6.2q3-2.6,8.4-2.6a21.7,21.7,0,0,1,6.3.9,13.3,13.3,0,0,1,4.7,2.3V29Z" transform="translate(-3.3 -1.6)"/><path class="cls-6" d="M171.8,43.1l3.7-.8V24.7l-4.1-.8V19.2h11.3l0.3,4.1a10.4,10.4,0,0,1,3.5-3.4,9.1,9.1,0,0,1,4.7-1.2,8.6,8.6,0,0,1,6.8,2.7q2.4,2.7,2.4,8.5V42.3l3.7,0.8v4.6H189.4V43.1l3.3-.8V30q0-2.9-1.2-4.1a4.7,4.7,0,0,0-3.5-1.2,5.9,5.9,0,0,0-2.7.6,5.6,5.6,0,0,0-2,1.8V42.3l3.1,0.8v4.6H171.8V43.1Z" transform="translate(-3.3 -1.6)"/><path class="cls-6" d="M219.9,48.3a12.8,12.8,0,0,1-9.9-4,14.1,14.1,0,0,1-3.7-10V33.2a15.6,15.6,0,0,1,3.5-10.5,11.6,11.6,0,0,1,9.4-4.1q5.8,0,9,3.5t3.2,9.4v4.2h-17v0.2a7.4,7.4,0,0,0,1.9,4.6,5.9,5.9,0,0,0,4.5,1.8,14.8,14.8,0,0,0,4.2-.5,19.5,19.5,0,0,0,3.7-1.6l2.1,4.7a15.1,15.1,0,0,1-4.6,2.3A19.5,19.5,0,0,1,219.9,48.3Zm-0.7-23.7a4,4,0,0,0-3.4,1.6,8.5,8.5,0,0,0-1.5,4.3h9.5V30a6.2,6.2,0,0,0-1.1-3.9A4.1,4.1,0,0,0,219.2,24.6Z" transform="translate(-3.3 -1.6)"/><path class="cls-6" d="M234.2,11.3V6.6H246V42.3l3.7,0.8v4.6H234.6V43.1l3.7-.8V12Z" transform="translate(-3.3 -1.6)"/><path class="cls-6" d="M21.9,113.1a12.8,12.8,0,0,1-9.9-4,14.1,14.1,0,0,1-3.7-10V98a15.6,15.6,0,0,1,3.5-10.5,11.6,11.6,0,0,1,9.4-4.1q5.8,0,9,3.5t3.2,9.4v4.2h-17v0.2a7.4,7.4,0,0,0,1.9,4.6,5.9,5.9,0,0,0,4.5,1.8,14.8,14.8,0,0,0,4.2-.5,19.5,19.5,0,0,0,3.7-1.6l2.1,4.7a15.2,15.2,0,0,1-4.6,2.3A19.5,19.5,0,0,1,21.9,113.1ZM21.2,89.4a4,4,0,0,0-3.4,1.6,8.5,8.5,0,0,0-1.5,4.3h9.5V94.8a6.2,6.2,0,0,0-1.1-3.9A4.1,4.1,0,0,0,21.2,89.4Z" transform="translate(-3.3 -1.6)"/><path class="cls-6" d="M50.6,113.1a12.8,12.8,0,0,1-9.9-4,14.1,14.1,0,0,1-3.7-10V98a15.6,15.6,0,0,1,3.5-10.5A11.6,11.6,0,0,1,50,83.5q5.8,0,9,3.5t3.2,9.4v4.2h-17v0.2a7.4,7.4,0,0,0,1.9,4.6,5.9,5.9,0,0,0,4.5,1.8,14.8,14.8,0,0,0,4.2-.5,19.5,19.5,0,0,0,3.7-1.6l2.1,4.7a15.2,15.2,0,0,1-4.6,2.3A19.5,19.5,0,0,1,50.6,113.1ZM50,89.4a4,4,0,0,0-3.4,1.6A8.5,8.5,0,0,0,45,95.4h9.5V94.8a6.2,6.2,0,0,0-1.1-3.9A4.1,4.1,0,0,0,50,89.4Z" transform="translate(-3.3 -1.6)"/><path class="cls-6" d="M65.3,107.9l3.7-.8V89.5l-4.1-.8V84H76.2l0.3,4.1A10.4,10.4,0,0,1,80,84.7a9.1,9.1,0,0,1,4.7-1.2,8.6,8.6,0,0,1,6.8,2.7q2.4,2.7,2.4,8.5v12.4l3.7,0.8v4.6H82.9v-4.6l3.3-.8V94.8q0-2.9-1.2-4.1a4.7,4.7,0,0,0-3.5-1.2,5.9,5.9,0,0,0-2.7.6,5.6,5.6,0,0,0-2,1.8v15.3l3.1,0.8v4.6H65.3v-4.6Z" transform="translate(-3.3 -1.6)"/><path class="cls-6" d="M112.4,76.1V71.4h11.8V95.3h1.7l4.4-6.2-2.5-.3V84h14v4.6l-3.4.8-5.1,7.1,7.2,10.8,2.9,0.6v4.6H130.3v-4.6l1.6-.3-4.4-7.1h-3.3v6.5l3.3,0.8v4.6H112.8v-4.6l3.7-.8V76.8Z" transform="translate(-3.3 -1.6)"/><path class="cls-6" d="M146,107.9l3.7-.8V89.5l-4.1-.8V84h11.8v23.1l3.7,0.8v4.6H146v-4.6Zm11.4-30.7h-7.7V71.4h7.7v5.8Z" transform="translate(-3.3 -1.6)"/><path class="cls-6" d="M174.9,113.6q0,5-2.7,7.7a9.8,9.8,0,0,1-7.4,2.7h-2l-1.8-.3,0.4-5.9,1.2,0.2h1.3a2.9,2.9,0,0,0,2.4-1.1,5.4,5.4,0,0,0,.9-3.4V89.5l-4.1-.8V84h11.8v29.6Zm-0.2-36.5h-7.7V71.4h7.7v5.7Z" transform="translate(-3.3 -1.6)"/><path class="cls-6" d="M178.6,76.1V71.4h11.8V95.3h1.7l4.4-6.2-2.5-.3V84h14v4.6l-3.4.8-5.1,7.1,7.2,10.8,2.9,0.6v4.6H196.5v-4.6l1.6-.3-4.4-7.1h-3.3v6.5l3.3,0.8v4.6H179v-4.6l3.7-.8V76.8Z" transform="translate(-3.3 -1.6)"/><path class="cls-6" d="M223.6,113.6q0,5-2.7,7.7a9.8,9.8,0,0,1-7.4,2.7h-2l-1.8-.3,0.4-5.9,1.2,0.2h1.3a2.9,2.9,0,0,0,2.4-1.1,5.4,5.4,0,0,0,.9-3.4V89.5l-4.1-.8V84h11.8v29.6Zm-0.2-36.5h-7.7V71.4h7.7v5.7Z" transform="translate(-3.3 -1.6)"/><path class="cls-6" d="M241.8,113.1a12.8,12.8,0,0,1-9.9-4,14.1,14.1,0,0,1-3.7-10V98a15.6,15.6,0,0,1,3.5-10.5,11.6,11.6,0,0,1,9.4-4.1q5.8,0,9,3.5t3.2,9.4v4.2h-17v0.2a7.4,7.4,0,0,0,1.9,4.6,5.9,5.9,0,0,0,4.5,1.8,14.8,14.8,0,0,0,4.2-.5,19.5,19.5,0,0,0,3.7-1.6l2.1,4.7a15.2,15.2,0,0,1-4.6,2.3A19.5,19.5,0,0,1,241.8,113.1Zm-0.7-23.7a4,4,0,0,0-3.4,1.6,8.5,8.5,0,0,0-1.5,4.3h9.5V94.8a6.2,6.2,0,0,0-1.1-3.9A4.1,4.1,0,0,0,241.1,89.4Z" transform="translate(-3.3 -1.6)"/><path class="cls-6" d="M37.5,172.7l3.7-.8V154.3l-4.1-.8v-4.6H48.4l0.3,4.1a10.4,10.4,0,0,1,3.5-3.4,9.1,9.1,0,0,1,4.7-1.2,8.6,8.6,0,0,1,6.8,2.7q2.4,2.7,2.4,8.5v12.4l3.7,0.8v4.6H55.1v-4.6l3.3-.8V159.6q0-2.9-1.2-4.1a4.7,4.7,0,0,0-3.5-1.2,5.9,5.9,0,0,0-2.7.6,5.6,5.6,0,0,0-2,1.8v15.3l3.1,0.8v4.6H37.5v-4.6Z" transform="translate(-3.3 -1.6)"/><path class="cls-6" d="M85.6,177.9a12.8,12.8,0,0,1-9.9-4,14.1,14.1,0,0,1-3.7-10v-1.1a15.6,15.6,0,0,1,3.5-10.5,11.6,11.6,0,0,1,9.4-4.1q5.8,0,9,3.5t3.2,9.4v4.2h-17v0.2a7.4,7.4,0,0,0,1.9,4.6,5.9,5.9,0,0,0,4.5,1.8,14.8,14.8,0,0,0,4.2-.5,19.5,19.5,0,0,0,3.7-1.6l2.1,4.7a15.2,15.2,0,0,1-4.6,2.3A19.5,19.5,0,0,1,85.6,177.9ZM85,154.2a4,4,0,0,0-3.4,1.6,8.5,8.5,0,0,0-1.5,4.3h9.5v-0.7a6.2,6.2,0,0,0-1.1-3.9A4.1,4.1,0,0,0,85,154.2Z" transform="translate(-3.3 -1.6)"/><path class="cls-6" d="M99.9,153.5v-4.6h11.3l0.3,3.8a9.6,9.6,0,0,1,3.4-3.2,9.9,9.9,0,0,1,4.8-1.1,8.7,8.7,0,0,1,4.7,1.2,7.5,7.5,0,0,1,3,3.7,9.9,9.9,0,0,1,3.4-3.6,9.3,9.3,0,0,1,5-1.3,8.2,8.2,0,0,1,6.7,2.9q2.4,2.9,2.4,8.9v11.9l3.7,0.8v4.6H133.8v-4.6l3.3-.8V160.1q0-3.2-1.1-4.5a3.9,3.9,0,0,0-3.1-1.3,5.4,5.4,0,0,0-2.8.7,5.3,5.3,0,0,0-1.9,2q0,0.5,0,.9t0,0.7v13.3l3.1,0.8v4.6H117.4v-4.6l3.1-.8V160.1q0-3.2-1.1-4.5a3.8,3.8,0,0,0-3.2-1.3,6,6,0,0,0-2.7.6,5.2,5.2,0,0,0-1.9,1.7v15.4l3.3,0.8v4.6H100.2v-4.6l3.7-.8V154.3Z" transform="translate(-3.3 -1.6)"/><path class="cls-6" d="M164.4,177.9a12.8,12.8,0,0,1-9.9-4,14.1,14.1,0,0,1-3.7-10v-1.1a15.6,15.6,0,0,1,3.5-10.5,11.6,11.6,0,0,1,9.4-4.1q5.8,0,9,3.5t3.2,9.4v4.2h-17v0.2a7.4,7.4,0,0,0,1.9,4.6,5.9,5.9,0,0,0,4.5,1.8,14.8,14.8,0,0,0,4.2-.5,19.5,19.5,0,0,0,3.7-1.6l2.1,4.7a15.2,15.2,0,0,1-4.6,2.3A19.5,19.5,0,0,1,164.4,177.9Zm-0.7-23.7a4,4,0,0,0-3.4,1.6,8.5,8.5,0,0,0-1.5,4.3h9.5v-0.7a6.2,6.2,0,0,0-1.1-3.9A4.1,4.1,0,0,0,163.7,154.2Z" transform="translate(-3.3 -1.6)"/><path class="cls-6" d="M179.1,172.7l3.7-.8V154.3l-4.1-.8v-4.6h11.3l0.3,4.1a10.4,10.4,0,0,1,3.5-3.4,9.1,9.1,0,0,1,4.7-1.2,8.6,8.6,0,0,1,6.8,2.7q2.4,2.7,2.4,8.5v12.4l3.7,0.8v4.6H196.6v-4.6l3.3-.8V159.6q0-2.9-1.2-4.1a4.7,4.7,0,0,0-3.5-1.2,5.9,5.9,0,0,0-2.7.6,5.6,5.6,0,0,0-2,1.8v15.3l3.1,0.8v4.6H179.1v-4.6Z" transform="translate(-3.3 -1.6)"/><path class="cls-6" d="M222.9,164.1h-7.7V139h7.7v25.2Zm0,13.2h-7.7v-6.7h7.7v6.8Z" transform="translate(-3.3 -1.6)"/></svg>